<svg xmlns="http://www.w3.org/2000/svg" width="4631" height="456" viewBox="0 0 4631 456" fill="none"> <path fill-rule="evenodd" clip-rule="evenodd" d="M2601.63 362.191C2526.45 362.191 2465.6 304.049 2465.6 227.779C2465.6 151.509 2526.45 93.3663 2601.63 93.3663C2676.81 93.3663 2737.67 147.235 2737.67 227.779C2737.67 308.323 2676.81 362.191 2601.63 362.191ZM919.368 145.245C852.767 145.245 798.546 198.524 798.546 264.624C798.546 330.725 852.468 384.004 919.368 384.004C986.268 384.004 1040.19 330.725 1040.19 264.624C1040.19 198.524 986.268 145.245 919.368 145.245ZM971.576 321.293C971.576 395.573 910.717 455.705 835.538 455.705C760.36 455.705 699.502 395.573 699.502 321.293C699.502 247.012 760.36 186.88 835.538 186.88C910.717 186.88 971.576 247.012 971.576 321.293ZM759.764 11.6429L759.764 99.2617L1061.37 99.2617L1061.37 271.662L1061.37 444.062L1173.84 444.062L1173.84 11.6429L759.764 11.6429ZM2116.55 222.031L1950.98 222.031L1950.98 99.2617L2116.55 99.2617C2151.01 99.2617 2178.53 126.748 2178.53 160.499C2178.53 194.249 2150.71 221.736 2116.55 221.736L2116.55 222.031ZM2143.25 11.643L1838.74 11.643L1838.74 444.062L1951.21 444.062L1951.21 298.006L2143.48 298.007C2223.58 298.007 2288.39 233.895 2288.39 154.825C2288.39 75.7541 2223.5 11.643 2143.48 11.643L2143.18 11.643L2143.25 11.643ZM4459.16 222.031L4293.59 222.031L4293.59 99.2618L4459.16 99.2618C4493.32 99.2618 4521.14 126.749 4521.14 160.499C4521.14 194.25 4493.32 221.736 4459.16 221.736L4459.16 222.031ZM4485.86 11.6431L4181.35 11.6431L4181.35 444.062L4293.82 444.062L4293.82 298.007L4486.09 298.007C4566.19 298.007 4631 233.895 4631 154.825C4631 75.7542 4566.11 11.6431 4486.09 11.6431L4485.79 11.6431L4485.86 11.6431ZM3775.85 356.444L3775.85 260.056L4059.63 260.056L4059.63 184.08L3775.85 184.08L3775.85 99.2618L4068.58 99.2618L4068.58 11.6431L3663.38 11.643L3663.38 444.062L4077.23 444.062L4077.23 356.444L3775.92 356.444L3775.85 356.444ZM1774.15 444.062L1529.07 198.524L1742.9 11.643L1613.2 11.643L1418.62 182.901L1418.62 11.6429L1306.45 11.6429L1306.45 444.062L1418.62 444.062L1418.62 228.589L1626.1 444.062L1774.15 444.062ZM413.854 11.6429L304.517 338.021L195.18 11.6429L8.07413e-06 11.6429L-1.08275e-05 444.062L112.469 444.062L112.469 53.3521L251.34 444.062L354.934 444.062L493.805 60.7212L493.805 444.062L605.976 444.062L605.976 11.6429L413.704 11.6429L413.854 11.6429ZM3350.81 11.643L3241.47 338.021L3132.13 11.643L2936.95 11.643L2936.95 444.062L3049.42 444.062L3049.42 53.3522L3188.29 444.062L3291.89 444.062L3430.76 60.7213L3430.76 444.062L3543.23 444.062L3543.23 11.643L3350.66 11.643L3350.81 11.643ZM2601.78 -8.86999e-05C2464.63 -9.46952e-05 2353.57 92.998 2353.57 228C2353.57 363.002 2464.63 456 2601.78 456C2738.94 456 2850.29 359.907 2850.29 228C2850.29 96.0931 2738.94 -8.27047e-05 2601.78 -8.86999e-05Z" fill="#00A0DF"/> </svg>