<svg xmlns="http://www.w3.org/2000/svg" width="90" height="100" viewBox="0 0 90 100" fill="none"> <path d="M2.16903 100C1.79803 100 1.42603 99.859 1.14203 99.576C0.572031 99.009 0.569031 98.087 1.13603 97.516L48.517 49.864L1.13903 2.486C0.57003 1.917 0.57003 0.995 1.13903 0.426C1.70803 -0.142 2.62903 -0.142 3.19803 0.426L51.603 48.831C52.171 49.398 52.172 50.318 51.606 50.888L3.20103 99.57C2.91803 99.856 2.54303 100 2.16903 100Z" fill="#00A0DF"/> <path d="M39.427 100C39.056 100 38.684 99.859 38.4 99.576C37.83 99.009 37.827 98.087 38.394 97.516L85.775 49.864L38.397 2.486C37.828 1.917 37.828 0.995 38.397 0.426C38.966 -0.142 39.887 -0.142 40.456 0.426L88.861 48.831C89.428 49.398 89.43 50.318 88.864 50.888L40.459 99.57C40.175 99.856 39.801 100 39.427 100Z" fill="#00A0DF"/> </svg>