<svg xmlns:xlink="http://www.w3.org/1999/xlink" xmlns="http://www.w3.org/2000/svg" width="57" height="57" viewBox="0 0 57 57" fill="none"> <path fill-rule="evenodd" clip-rule="evenodd" d="M6.19997 52.8H51.3C52.4 52.8 53.4 51.9 53.4 50.8V5.70001C53.4 4.60001 52.5 3.70001 51.3 3.70001H6.19997C5.09997 3.70001 4.19997 4.60001 4.19997 5.70001V50.8C4.09997 51.9 4.99997 52.8 6.19997 52.8Z" stroke="#00A0DF" stroke-width="1.4145" stroke-miterlimit="22.9256"/> <path fill-rule="evenodd" clip-rule="evenodd" d="M32.2 47.9H20.4C19.7 47.9 19.1 47.6 18.6 47.1C18.1 46.6 17.8 46 17.8 45.3V27.4L21.2 19.6H28.2L28.8 25.7C29 26.5 29.3 27.1 29.8 27.6C30.3 28.1 31 28.4 31.8 28.7H32.2C32.9 28.7 33.5 29 34 29.5C34.5 30 34.8 30.6 34.8 31.3V45.4C34.8 46.1 34.5 46.7 34 47.2C33.5 47.6 32.9 47.9 32.2 47.9ZM20.4 46.3H32.2C32.5 46.3 32.7 46.2 32.9 46C33.1 45.8 33.2 45.6 33.2 45.3V31.2C33.2 30.9 33.1 30.7 32.9 30.5C32.7 30.3 32.5 30.2 32.2 30.2H31.6H31.5C30.3 29.9 29.4 29.4 28.7 28.7C28 28 27.5 27.1 27.2 25.9L26.8 21.1H22.3L19.5 27.6V45.2C19.5 45.5 19.6 45.7 19.8 45.9C19.9 46.2 20.2 46.3 20.4 46.3Z" fill="#00A0DF"/> <path d="M31.9 34.9H20.4V45.3H31.9V34.9Z" fill="#00A0DF"/> <path fill-rule="evenodd" clip-rule="evenodd" d="M25 20.8C24.7 23.8 24.6 27 24.8 30.2C25 33.4 25.4 36.8 26 40.2L24.4 40.5C23.8 37 23.4 33.6 23.2 30.3C23 27 23.1 23.7 23.4 20.6L25 20.8Z" fill="#00A0DF"/> <path d="M28.8 19.1H20V22.5H28.8V19.1Z" fill="#00A0DF"/> <path fill-rule="evenodd" clip-rule="evenodd" d="M27.5 19.6C25.1 19.6 23.9 19.6 21.5 19.6C21.1 18.3 19.5 16.3 17.5 15.8C17.4 12.5 19 10.9 22 10.6L33.2 10.5V14.3C31.1 14.4 28.8 17.3 27.5 19.6Z" fill="#00A0DF"/> <path fill-rule="evenodd" clip-rule="evenodd" d="M31.7 14.1C30.9 14.5 30.1 14.9 29.3 15.3C30.2 17.4 31.6 18.9 33.1 20.3C34 21.2 34.9 20.4 34.3 19.6C32.9 17.9 32 16 31.7 14.1Z" fill="#00A0DF"/> <path d="M35.6 9.79999H33.1V15.2H35.6V9.79999Z" fill="#00A0DF"/> <path fill-rule="evenodd" clip-rule="evenodd" d="M38.7 13.4C39.3 13.4 39.7 12.9 39.7 12.4C39.7 11.8 39.2 11.4 38.7 11.4C38.2 11.4 37.7 11.9 37.7 12.4C37.7 12.9 38.1 13.4 38.7 13.4Z" fill="#00A0DF"/> <path fill-rule="evenodd" clip-rule="evenodd" d="M44.1 13.4C44.7 13.4 45.1 12.9 45.1 12.4C45.1 11.8 44.6 11.4 44.1 11.4C43.6 11.4 43.1 11.9 43.1 12.4C43.1 12.9 43.5 13.4 44.1 13.4Z" fill="#00A0DF"/> <path d="M41.3 11.7C41.8523 11.7 42.3 11.2523 42.3 10.7C42.3 10.1477 41.8523 9.70001 41.3 9.70001C40.7477 9.70001 40.3 10.1477 40.3 10.7C40.3 11.2523 40.7477 11.7 41.3 11.7Z" fill="#00A0DF"/> <path d="M44.1 10.3C44.6523 10.3 45.1 9.85227 45.1 9.29999C45.1 8.7477 44.6523 8.29999 44.1 8.29999C43.5477 8.29999 43.1 8.7477 43.1 9.29999C43.1 9.85227 43.5477 10.3 44.1 10.3Z" fill="#00A0DF"/> <path fill-rule="evenodd" clip-rule="evenodd" d="M41.3 14.9C41.9 14.9 42.3 14.4 42.3 13.9C42.3 13.3 41.8 12.9 41.3 12.9C40.8 12.9 40.3 13.4 40.3 13.9C40.3 14.5 40.8 14.9 41.3 14.9Z" fill="#00A0DF"/> <path fill-rule="evenodd" clip-rule="evenodd" d="M44.1 16.2C44.7 16.2 45.1 15.7 45.1 15.2C45.1 14.6 44.6 14.2 44.1 14.2C43.6 14.2 43.1 14.7 43.1 15.2C43.1 15.8 43.5 16.2 44.1 16.2Z" fill="#00A0DF"/> </svg>