<svg xmlns:xlink="http://www.w3.org/1999/xlink" xmlns="http://www.w3.org/2000/svg" width="57" height="57" viewBox="0 0 57 57" fill="none"> <path fill-rule="evenodd" clip-rule="evenodd" d="M5.39998 51.9H50.5C51.6 51.9 52.6 51 52.6 49.9V4.70001C52.6 3.60001 51.7 2.70001 50.5 2.70001H5.39998C4.29998 2.70001 3.39998 3.60001 3.39998 4.70001V49.8C3.29998 51 4.19998 51.9 5.39998 51.9Z" stroke="#00A0DF" stroke-width="1.4145" stroke-miterlimit="22.9256"/> <path fill-rule="evenodd" clip-rule="evenodd" d="M23.8 15.5H31.8C32.8 15.5 33.6 16.3 33.6 17.3C33.6 18.2 32.9 19 32 19.1V26.4C35.7 28 38.3 31.7 38.3 36.1C38.3 41.9 33.6 46.6 27.8 46.6C22 46.6 17.2 41.9 17.2 36.1C17.2 31.8 19.8 28.1 23.5 26.4V19.1C22.7 19 22 18.2 22 17.3C22 16.3 22.8 15.5 23.8 15.5ZM24 34.2C22.8 34.2 21.9 35.1 21.9 36.3C21.9 37.5 22.8 38.4 24 38.4C25.2 38.4 26.1 37.5 26.1 36.3C26.1 35.1 25.1 34.2 24 34.2ZM30.2 28.4C28.4 28.4 27 29.8 27 31.6C27 33.4 28.4 34.8 30.2 34.8C32 34.8 33.4 33.4 33.4 31.6C33.4 29.8 32 28.4 30.2 28.4ZM29.3 38.4C28.5 38.4 27.9 39 27.9 39.8C27.9 40.6 28.5 41.2 29.3 41.2C30.1 41.2 30.7 40.6 30.7 39.8C30.7 39.1 30.1 38.4 29.3 38.4Z" fill="#00A0DF"/> <path fill-rule="evenodd" clip-rule="evenodd" d="M27.2 17.4C28.6 17.4 29.7 16.3 29.7 14.9C29.7 13.5 28.6 12.4 27.2 12.4C25.8 12.4 24.7 13.5 24.7 14.9C24.7 16.3 25.8 17.4 27.2 17.4Z" fill="#00A0DF"/> <path fill-rule="evenodd" clip-rule="evenodd" d="M32.2 12.6C33 12.6 33.6 12 33.6 11.2C33.6 10.4 33 9.79999 32.2 9.79999C31.4 9.79999 30.8 10.4 30.8 11.2C30.8 11.9 31.4 12.6 32.2 12.6Z" fill="#00A0DF"/> <path fill-rule="evenodd" clip-rule="evenodd" d="M27.8 9.70001C28.6 9.70001 29.3 9.00001 29.3 8.20001C29.3 7.40001 28.6 6.70001 27.8 6.70001C27 6.70001 26.3 7.40001 26.3 8.20001C26.3 9.10001 27 9.70001 27.8 9.70001Z" fill="#00A0DF"/> </svg>