<?xml version="1.0" encoding="UTF-8"?> <svg xmlns="http://www.w3.org/2000/svg" width="484" height="484" viewBox="0 0 484 484" fill="none"> <path fill-rule="evenodd" clip-rule="evenodd" d="M289.886 241.561C289.886 214.834 268.289 193.237 241.562 193.237C214.834 193.237 193.238 214.834 193.238 241.561C193.238 268.289 214.834 289.886 241.562 289.886C268.289 289.886 289.886 268.289 289.886 241.561ZM386.475 241.561C386.475 161.498 321.625 96.6482 241.562 96.6482C161.499 96.6482 96.5889 161.498 96.5889 241.561C96.5889 321.625 161.439 386.534 241.502 386.534C321.565 386.534 386.415 321.684 386.415 241.561H386.475ZM241.562 483.123C108.103 483.123 0 374.901 0 241.561C0 108.222 108.163 0 241.562 0C374.961 0 483.124 108.163 483.124 241.561C483.124 374.96 374.961 483.123 241.562 483.123Z" fill="#00A0DF"></path> </svg> 