<svg xmlns:xlink="http://www.w3.org/1999/xlink" xmlns="http://www.w3.org/2000/svg" width="57" height="57" viewBox="0 0 57 57" fill="none"> <path fill-rule="evenodd" clip-rule="evenodd" d="M5.80002 52.6H50.9C51.4 52.6 51.8 52.4 52.1 52.1C52.4 51.8 52.6 51.4 52.6 50.9V5.80002C52.6 5.30002 52.4 4.90002 52.1 4.60002C51.8 4.30002 51.4 4.10002 50.9 4.10002H5.80002C5.30002 4.10002 4.90002 4.30002 4.60002 4.60002C4.30002 4.90002 4.10002 5.30002 4.10002 5.80002V50.9C4.10002 51.4 4.30002 51.8 4.60002 52.1C4.90002 52.4 5.30002 52.6 5.80002 52.6ZM50.9 53.3H5.80002C5.10002 53.3 4.50002 53 4.10002 52.6C3.70002 52.2 3.40002 51.6 3.40002 50.9V5.80002C3.40002 5.10002 3.70002 4.50002 4.10002 4.10002C4.50002 3.70002 5.10002 3.40002 5.80002 3.40002H50.9C51.6 3.40002 52.2 3.70002 52.6 4.10002C53 4.50002 53.3 5.10002 53.3 5.80002V50.9C53.3 51.6 53 52.2 52.6 52.6C52.2 53 51.6 53.3 50.9 53.3Z" fill="#00A0DF"/> <path fill-rule="evenodd" clip-rule="evenodd" d="M39.6 28.4C39.6 25.1 41.7 23.2 42.5 22.5C42.7 22.4 42.7 22.1 42.6 21.9L40 18C39.9 17.9 39.7 17.8 39.6 17.8C38.5 17.8 33.8 17.8 31.4 14.2C31.3 14.1 31.2 14 31 14H25.7C25.5 14 25.4 14.1 25.3 14.2C22.9 17.7 18.3 17.8 17.1 17.8C16.9 17.8 16.8 17.9 16.7 18L14.1 22C14 22.2 14 22.5 14.2 22.6C15 23.3 17.1 25.2 17.1 28.5C17.1 31.7 15 33.7 14.2 34.4C14 34.5 14 34.8 14.1 35L16.7 38.4C16.8 38.5 17 38.6 17.1 38.6C23.6 38 27 41.6 28 42.5C28.2 42.7 28.5 42.7 28.7 42.5C29.7 41.5 33.1 38 39.6 38.6C39.8 38.6 39.9 38.5 40 38.4L42.6 35C42.8 34.8 42.7 34.5 42.5 34.4C41.6 33.7 39.6 31.7 39.6 28.4Z" fill="#00A0DF"/> </svg>