<svg xmlns:xlink="http://www.w3.org/1999/xlink" xmlns="http://www.w3.org/2000/svg" width="57" height="57" viewBox="0 0 57 57" fill="none"> <path fill-rule="evenodd" clip-rule="evenodd" d="M5.80002 52.6H50.9C51.4 52.6 51.8 52.4 52.1 52.1C52.4 51.8 52.6 51.4 52.6 50.9V5.80002C52.6 5.30002 52.4 4.90002 52.1 4.60002C51.8 4.30002 51.4 4.10002 50.9 4.10002H5.80002C5.30002 4.10002 4.90002 4.30002 4.60002 4.60002C4.30002 4.90002 4.10002 5.30002 4.10002 5.80002V50.9C4.10002 51.4 4.30002 51.8 4.60002 52.1C4.90002 52.4 5.30002 52.6 5.80002 52.6ZM50.9 53.3H5.80002C5.10002 53.3 4.50002 53 4.10002 52.6C3.70002 52.2 3.40002 51.6 3.40002 50.9V5.80002C3.40002 5.10002 3.70002 4.50002 4.10002 4.10002C4.50002 3.70002 5.10002 3.40002 5.80002 3.40002H50.9C51.6 3.40002 52.2 3.70002 52.6 4.10002C53 4.50002 53.3 5.10002 53.3 5.80002V50.9C53.3 51.6 53 52.2 52.6 52.6C52.2 53 51.6 53.3 50.9 53.3Z" fill="#00A0DF"/> <path fill-rule="evenodd" clip-rule="evenodd" d="M42.7 29.3V18.9C42.7 18.6 42.5 18.4 42.2 18.4H40.9V15C40.9 14.5 40.5 14 39.9 14H16.7C16.2 14 15.7 14.4 15.7 15V18.4H14.4C14.1 18.4 13.9 18.6 13.9 18.9V20.3C13.9 20.6 14.1 20.8 14.4 20.8H15.7V24.2C15.7 24.7 16.1 25.2 16.7 25.2H40.3V27.9H28.1C27.6 27.9 27.1 28.3 27.1 28.9V32.8H26C25.7 32.8 25.5 33 25.5 33.3V42.3C25.5 42.6 25.7 42.8 26 42.8H30.6C30.9 42.8 31.1 42.6 31.1 42.3V33.3C31.1 33 30.9 32.8 30.6 32.8H29.5V30.3H41.7C42.3 30.2 42.7 29.8 42.7 29.3Z" fill="#00A0DF"/> </svg>