<svg xmlns:xlink="http://www.w3.org/1999/xlink" xmlns="http://www.w3.org/2000/svg" width="57" height="57" viewBox="0 0 57 57" fill="none"> <path fill-rule="evenodd" clip-rule="evenodd" d="M6.29999 53.4001H51.4C52.5 53.4001 53.5 52.5001 53.5 51.4001V6.30005C53.5 5.20005 52.6 4.30005 51.4 4.30005H6.29999C5.19999 4.30005 4.29999 5.20005 4.29999 6.30005V51.4001C4.29999 52.5001 5.19999 53.4001 6.29999 53.4001Z" stroke="#00A0DF" stroke-width="1.4145" stroke-miterlimit="22.9256"/> <path fill-rule="evenodd" clip-rule="evenodd" d="M45.1 24.1C34.3 24.1 23.6 24.1 12.8 24.1C9.60001 24 8.40001 24.6 11.8 26.2C12.9 26.6 14 27 15.1 27.4C17.9 28.2 18.8 29.6 18.7 31.2C23.4 30.6 24.3 34 21.6 35.3C20.3 36.1 18.9 36.9 17.6 37.7C16.4 38.5 15.5 39.6 16 42.8C25.1 42.8 34.2 42.8 43.2 42.8C43.2 41.6 43.2 40.3 43.2 39.1C43.2 36.7 41.6 35.6 40.5 35.4C38.5 35.3 37.5 34.7 37.6 33.2C38 31.4 39.1 31.3 40.1 31.2C41 31.2 41.8 31.2 42.7 31.2C44.3 31.3 45 30.5 45 29.2C45.1 27.5 45.1 25.8 45.1 24.1Z" fill="#00A0DF"/> <path fill-rule="evenodd" clip-rule="evenodd" d="M32.3 14.3L33.3 17.5L18.6 21.6C18.4 21.7 18.3 21.9 18.3 22.1L18.9 24C19 24.2 19.2 24.3 19.4 24.3L33.9 19.7L35.2 23.9C35.3 24.1 35.5 24.2 35.7 24.2L39.9 22.9C40.1 22.8 40.2 22.6 40.2 22.4L37.3 12.8L35.2 11.2C34.2 10.5 33.9 10.6 33.4 11.8L32.3 14.3Z" fill="#00A0DF"/> </svg>