<svg xmlns:xlink="http://www.w3.org/1999/xlink" xmlns="http://www.w3.org/2000/svg" width="52" height="51" viewBox="0 0 52 51" fill="none"> <path fill-rule="evenodd" clip-rule="evenodd" d="M30.8361 15.4019C30.8361 6.97635 23.9658 0.145508 15.4774 0.145508C6.98898 0.145508 0.112305 6.97007 0.112305 15.4019L0.112305 49.4743C0.112305 50.3156 0.801235 50.9937 1.64186 50.9937H8.80928C9.65622 50.9937 10.3388 50.3093 10.3388 49.4743L10.3388 15.4019C10.3388 12.5892 12.6268 10.3164 15.4584 10.3164C18.29 10.3164 20.578 12.5892 20.578 15.4019V35.7436C20.578 44.1691 27.4484 50.9999 35.9368 50.9999C44.4252 50.9999 51.2955 44.1754 51.2955 35.7436V1.67117C51.2955 0.829879 50.6066 0.151792 49.766 0.151792L42.5986 0.151792C41.7516 0.151792 41.069 0.836157 41.069 1.67117V35.7436C41.069 38.5563 38.781 40.8291 35.9494 40.8291C33.1178 40.8291 30.8298 38.5563 30.8298 35.7436V15.4019H30.8361Z" fill="#00A0DF"/> </svg>