<svg xmlns:xlink="http://www.w3.org/1999/xlink" xmlns="http://www.w3.org/2000/svg" width="57" height="57" viewBox="0 0 57 57" fill="none"> <path fill-rule="evenodd" clip-rule="evenodd" d="M5.39998 52.3H50.5C51.6 52.3 52.6 51.4 52.6 50.3V5.20001C52.6 4.10001 51.7 3.20001 50.5 3.20001H5.39998C4.29998 3.20001 3.39998 4.10001 3.39998 5.20001V50.3C3.29998 51.4 4.19998 52.3 5.39998 52.3Z" stroke="#00A0DF" stroke-width="1.4145" stroke-miterlimit="22.9256"/> <path fill-rule="evenodd" clip-rule="evenodd" d="M41 10C32.2 8.20002 23.5 8.30002 14.8 10C13.1 21.9 13 33.8 14.8 45.6C23.6 47.2 32.3 47 41 45.6C42.8 33.3 42.9 21.4 41 10ZM22.5 30.2C22.4 29.7 21.9 28.8 22.3 27.3C23 24.9 25.4 23.2 27.7 22.9C29.3 22.7 31 22.9 32.3 22.6C33.8 22.2 34.3 20.4 35.3 21.7C35.6 22.1 36 23.5 36 24.2C36 26.7 35.2 28.6 33.4 30.2C32.1 31.3 29.6 32.5 27.9 32.5C24.5 32.5 24.1 31.2 23.4 31.5C23.1 31.7 22.3 34.2 21.1 32.6C20.6 32 20.9 31.7 21.3 31.2L22.5 30.2ZM24.2 29.3C24.2 28.9 26.2 27.1 26.7 26.9C28.3 26 29.2 25.7 31 25.7C31.5 25.7 31.7 26.3 31.3 26.6C31 26.8 29.1 26.5 27.5 27.5C26.3 28.2 25.7 29.1 24.9 29.7C24.9 29.8 24.2 30 24.2 29.3ZM17.1 26.6C17.1 25.5 17.8 23.2 18.3 22.4C18.4 22.2 18.7 21.8 18.8 21.6C18.9 21.4 19 21.3 19.1 21.2C19.9 20.1 19.4 20.6 20.6 19.4C21.5 18.5 22.7 17.8 23.9 17.3C27.8 15.5 32.8 16.4 35.9 19.4C36.7 20.2 37.2 20.7 37.7 21.6C38.5 22.9 39.4 25.1 39.4 26.6C39.4 29 39.4 30.4 38.2 32.6C37.9 33.2 37.5 33.7 37.1 34.2C36.4 35.3 35.4 36.1 34.3 36.8C29.5 40 22.8 38.8 19.4 34.2C18.8 33.3 18.9 33.4 18.4 32.6C17.9 31.9 17.2 29.6 17.2 28.5V26.6H17.1Z" fill="#00A0DF"/> </svg>