<svg xmlns="http://www.w3.org/2000/svg" width="268" height="268" viewBox="0 0 268 268" fill="none"> <path fill-rule="evenodd" clip-rule="evenodd" d="M258.936 107.34H198.041L241.086 64.2626C244.182 61.1668 244.182 56.0949 241.086 52.9333L214.706 26.5201C211.61 23.4243 206.538 23.4243 203.409 26.5201L160.365 69.5979V8.66994C160.365 4.25678 156.775 0.666992 152.362 0.666992H115.08C110.667 0.666992 107.077 4.25678 107.077 8.66994V69.6306L64.0655 26.4872C60.9697 23.3914 55.8978 23.3914 52.769 26.4872L26.389 52.9003C23.2932 55.9961 23.2932 61.0679 26.389 64.2296L69.4336 107.307H8.60451C4.19135 107.307 0.601562 110.897 0.601562 115.31V152.624C0.601562 157.038 4.19135 160.627 8.60451 160.627H69.4996L26.4548 203.705C23.359 206.801 23.359 211.873 26.4548 215.034L52.835 241.448C55.9308 244.543 61.0026 244.543 64.1313 241.448L107.176 198.37V259.331C107.176 263.744 110.766 267.334 115.179 267.334H152.46C156.874 267.334 160.463 263.744 160.463 259.331V198.37L203.508 241.448C206.604 244.543 211.676 244.543 214.804 241.448L241.185 215.034C244.28 211.939 244.28 206.867 241.185 203.705L198.14 160.627H259.035C263.448 160.627 267.038 157.038 267.038 152.624V115.31C267.038 110.897 263.448 107.307 259.035 107.307" fill="white"/> </svg>