<svg xmlns="http://www.w3.org/2000/svg" width="319" height="319" viewBox="0 0 319 319" fill="none"> <path fill-rule="evenodd" clip-rule="evenodd" d="M309.3 127.608H236.392L287.929 76.0762C291.635 72.3729 291.635 66.3057 287.929 62.5235L256.344 30.9268C252.637 27.2235 246.565 27.2235 242.819 30.9268L191.282 82.4586V9.57352C191.282 4.29428 186.984 0 181.7 0H137.064C131.78 0 127.482 4.29428 127.482 9.57352V82.4978L75.9845 30.8874C72.2779 27.184 66.2054 27.184 62.4594 30.8874L30.8749 62.4841C27.1683 66.1874 27.1683 72.2546 30.8749 76.0368L82.4117 127.568H9.58182C4.298 127.568 0 131.863 0 137.142V181.779C0 187.058 4.298 191.353 9.58182 191.353H82.4907L30.9537 242.884C27.2472 246.588 27.2472 252.655 30.9537 256.437L62.5384 288.034C66.2449 291.737 72.3173 291.737 76.0633 288.034L127.6 236.502V309.426C127.6 314.706 131.898 319 137.182 319H181.819C187.102 319 191.4 314.706 191.4 309.426V236.502L242.937 288.034C246.644 291.737 252.716 291.737 256.462 288.034L288.047 256.437C291.753 252.734 291.753 246.666 288.047 242.884L236.51 191.353H309.419C314.702 191.353 319 187.058 319 181.779V137.142C319 131.863 314.702 127.568 309.419 127.568" fill="#00A0DF"/> </svg>